<svg width="155" height="155" viewBox="0 0 155 155" fill="none" xmlns="http://www.w3.org/2000/svg">
<g filter="url(#filter0_d_737_367)">
<circle cx="77.5" cy="67.5" r="47.5" fill="white"/>
</g>
<g filter="url(#filter1_d_737_367)">
<circle cx="77.5001" cy="67.5001" r="40.375" fill="white"/>
</g>
<path d="M95.4194 50.7419V83.258C95.4194 83.8995 94.8995 84.4193 94.2581 84.4193H61.742C61.1006 84.4193 60.5807 83.8995 60.5807 83.258V50.7419C60.5807 50.1006 61.1006 49.5806 61.742 49.5806H94.2581C94.8995 49.5806 95.4194 50.1006 95.4194 50.7419Z" stroke="url(#paint0_linear_737_367)" stroke-width="4" stroke-linecap="round" stroke-linejoin="round"/>
<path d="M81.871 63.129V62.7419C81.871 60.8178 80.3112 59.2581 78.3871 59.2581H77.6129C75.6888 59.2581 74.129 60.8178 74.129 62.7419V71.2581C74.129 73.1821 75.6888 74.7419 77.6129 74.7419H78.3871C80.3112 74.7419 81.871 73.1821 81.871 71.2581V70.871" stroke="url(#paint1_linear_737_367)" stroke-width="3" stroke-linecap="round" stroke-linejoin="round"/>
<defs>
<filter id="filter0_d_737_367" x="0" y="0" width="155" height="155" filterUnits="userSpaceOnUse" color-interpolation-filters="sRGB">
<feFlood flood-opacity="0" result="BackgroundImageFix"/>
<feColorMatrix in="SourceAlpha" type="matrix" values="0 0 0 0 0 0 0 0 0 0 0 0 0 0 0 0 0 0 127 0" result="hardAlpha"/>
<feOffset dy="10"/>
<feGaussianBlur stdDeviation="15"/>
<feComposite in2="hardAlpha" operator="out"/>
<feColorMatrix type="matrix" values="0 0 0 0 0.633333 0 0 0 0 0.633333 0 0 0 0 0.633333 0 0 0 0.25 0"/>
<feBlend mode="normal" in2="BackgroundImageFix" result="effect1_dropShadow_737_367"/>
<feBlend mode="normal" in="SourceGraphic" in2="effect1_dropShadow_737_367" result="shape"/>
</filter>
<filter id="filter1_d_737_367" x="7.12506" y="7.12506" width="140.75" height="140.75" filterUnits="userSpaceOnUse" color-interpolation-filters="sRGB">
<feFlood flood-opacity="0" result="BackgroundImageFix"/>
<feColorMatrix in="SourceAlpha" type="matrix" values="0 0 0 0 0 0 0 0 0 0 0 0 0 0 0 0 0 0 127 0" result="hardAlpha"/>
<feOffset dy="10"/>
<feGaussianBlur stdDeviation="15"/>
<feComposite in2="hardAlpha" operator="out"/>
<feColorMatrix type="matrix" values="0 0 0 0 0.633333 0 0 0 0 0.633333 0 0 0 0 0.633333 0 0 0 0.25 0"/>
<feBlend mode="normal" in2="BackgroundImageFix" result="effect1_dropShadow_737_367"/>
<feBlend mode="normal" in="SourceGraphic" in2="effect1_dropShadow_737_367" result="shape"/>
</filter>
<linearGradient id="paint0_linear_737_367" x1="60.5807" y1="51.6129" x2="98.9369" y2="57.5496" gradientUnits="userSpaceOnUse">
<stop stop-color="#97BC5D"/>
<stop offset="1" stop-color="#C0D997"/>
</linearGradient>
<linearGradient id="paint1_linear_737_367" x1="74.129" y1="60.1613" x2="82.8049" y2="60.8327" gradientUnits="userSpaceOnUse">
<stop stop-color="#97BC5D"/>
<stop offset="1" stop-color="#C0D997"/>
</linearGradient>
</defs>
</svg>
