<svg width="120" height="56" viewBox="0 0 120 56" fill="none" xmlns="http://www.w3.org/2000/svg">
<g filter="url(#filter0_d_737_494)">
<path d="M48.2765 16C50.5407 16 51.6979 17.2565 51.6979 19.5602V22.178C51.6979 22.4397 51.6979 23.461 51.6979 23.461L48.4275 22.5617C48.4275 22.5617 48.4275 22.4397 48.4275 22.178V20.2932C48.4275 19.6649 48.1256 19.2984 47.4715 19.2984H46.3143C45.7105 19.2984 45.3583 19.6649 45.3583 20.2932V23.7486L51.6979 25.5287V26.4987V32.3767C51.6979 34.7327 50.44 35.9475 48.2262 35.9475H45.5596C43.3457 35.9475 42.1382 34.691 42.1382 32.3873V29.7695C42.1382 29.5078 42.1382 28.5654 42.1382 28.5654L45.4086 29.6125V29.7695V31.7067C45.4086 32.3873 45.7608 32.7015 46.3646 32.7015H47.5218C48.1256 32.7015 48.4778 32.3873 48.4778 31.7067L48.4275 28.3559L42.1382 26.4711C42.1382 26.4711 42.1382 25.9999 42.1382 25.5287V19.5602C42.1382 17.2042 43.3457 16 45.5596 16H48.2765Z" fill="#3C3F34"/>
<path d="M60.8554 16H54.717C54.717 16 54.717 16.1575 54.717 16.4199V35.5801C54.717 35.8425 54.7171 36 54.7171 36H57.9875C57.9875 36 57.9875 35.8425 57.9875 35.5801V29.2808H60.8554C63.1195 29.2808 64.2768 28.021 64.2768 25.7113V19.5696C64.2768 17.2598 63.0692 16 60.8554 16ZM61.0063 24.9764C61.0063 25.6063 60.7044 25.9738 60.0504 25.9738H57.9372V19.3071H60.0504C60.7044 19.3071 61.0063 19.6745 61.0063 20.3045V24.9764Z" fill="#3C3F34"/>
<path d="M39.6226 16C39.6226 16 39.6226 16.1571 39.6226 16.4188V35.5287C39.6226 35.7904 39.6226 35.9475 39.6226 35.9475H36.6038C36.6038 35.9475 36.6038 35.7904 36.6038 35.5287V16.4188C36.6038 16.1571 36.6038 16 36.6038 16L39.6226 16Z" fill="#3C3F34"/>
<path d="M77.3581 35.9475L73.3833 16C73.3833 16 73.182 16 72.9808 16H69.66H69.2575L65.2827 35.9475H65.5846H68.1506H68.3016L69.2072 31.958H73.4839L74.138 35.9475C74.138 35.9475 74.289 35.9475 74.5405 35.9475H77.0563C77.3078 35.9475 77.3581 35.9475 77.3581 35.9475ZM69.7607 29.0709L71.2701 20.357L72.7795 29.0709H69.7607Z" fill="#3C3F34"/>
<path d="M100 19.1496V19.3071H93.4038V24.294H97.7535C97.9925 24.294 98.5661 24.294 98.5661 24.294V27.6011C98.5661 27.6011 97.9925 27.6011 97.7535 27.6011H93.4038V32.6404H100C100 32.6404 100 32.7454 100 33.0604V35.4226C100 35.685 100 35.9475 100 35.9475H90.4403C90.4403 35.9475 90.4403 35.79 90.4403 35.5276V16.4199L90.4403 16H99.1397C99.4264 16 100 16 100 16V18.8871V19.1496Z" fill="#3C3F34"/>
<path d="M87.9244 16H77.3584C77.3584 16 77.3584 16.2517 77.3584 16.5249V18.8871C77.3584 19.1057 77.3584 19.3919 77.3584 19.3919H80.8804V30.6982C80.8804 30.6982 81.0979 30.6982 81.2473 30.6982H81.9941H82.2431H82.2929H82.3427H83.438H83.7866H84.4024V19.3919L87.9244 19.4201C87.9244 19.4201 87.9244 19.4228 87.9244 19.1496V16.5249V16Z" fill="#3C3F34"/>
<path d="M84.402 32.2729H80.88C80.88 32.2729 80.88 32.3915 80.88 32.4507V35.9475C80.88 35.9475 80.9936 35.9475 81.0504 35.9475H84.402C84.402 35.9475 84.402 35.829 84.402 35.7697V32.4507C84.402 32.3915 84.402 32.2729 84.402 32.2729Z" fill="#3C3F34"/>
<path d="M22.8728 24.3994H20.1461C20.0974 24.3994 20 24.3994 20 24.3994V27.3966C20 27.4982 20 27.549 20 27.549H22.8728C22.9702 27.549 23.0189 27.549 23.0189 27.549V24.3994C23.0189 24.3994 22.9702 24.3994 22.8728 24.3994Z" fill="#3C3F34"/>
<path d="M30.5662 16H24.5284C24.5284 16 24.5284 16.1571 24.5284 16.4188V24.399H27.7989V19.3508C27.7989 19.2984 27.7989 19.2984 27.7989 19.2984H29.9624C30.5662 19.2984 30.9184 19.6649 30.9184 20.2932V31.602C30.9184 32.2826 30.5662 32.5967 29.9624 32.5967H27.8492C27.7989 32.5967 27.7989 32.5967 27.7989 32.5967V27.5486H24.5284V35.4763C24.5284 35.7381 24.5284 35.9475 24.5284 35.9475H30.5662C32.5284 35.9475 34.0882 34.3245 34.0882 32.2826V19.6649C34.0882 17.623 32.4781 16 30.5662 16Z" fill="#3C3F34"/>
</g>
<defs>
<filter id="filter0_d_737_494" x="0" y="0" width="120" height="60" filterUnits="userSpaceOnUse" color-interpolation-filters="sRGB">
<feFlood flood-opacity="0" result="BackgroundImageFix"/>
<feColorMatrix in="SourceAlpha" type="matrix" values="0 0 0 0 0 0 0 0 0 0 0 0 0 0 0 0 0 0 127 0" result="hardAlpha"/>
<feOffset dy="4"/>
<feGaussianBlur stdDeviation="10"/>
<feColorMatrix type="matrix" values="0 0 0 0 1 0 0 0 0 1 0 0 0 0 1 0 0 0 0.25 0"/>
<feBlend mode="normal" in2="BackgroundImageFix" result="effect1_dropShadow_737_494"/>
<feBlend mode="normal" in="SourceGraphic" in2="effect1_dropShadow_737_494" result="shape"/>
</filter>
</defs>
</svg>
