<svg width="163" height="163" viewBox="0 0 163 163" fill="none" xmlns="http://www.w3.org/2000/svg">
<g filter="url(#filter0_d_737_387)">
<circle cx="81.5" cy="71.5" r="51.5" fill="white"/>
</g>
<g filter="url(#filter1_d_737_387)">
<circle cx="81.5001" cy="71.5001" r="43.775" fill="white"/>
</g>
<path d="M98 54H66C62.6865 54 60 56.6865 60 60V84C60 87.3135 62.6865 90 66 90H98C101.313 90 104 87.3135 104 84V60C104 56.6865 101.313 54 98 54ZM98 86H66C64.8955 86 64 85.1045 64 84V62.161L80.7505 75.5615C81.1155 75.854 81.5575 76 82 76C82.4425 76 82.8845 75.854 83.2495 75.5615L100 62.161V84C100 85.1045 99.1045 86 98 86Z" fill="url(#paint0_linear_737_387)"/>
<defs>
<filter id="filter0_d_737_387" x="0" y="0" width="163" height="163" filterUnits="userSpaceOnUse" color-interpolation-filters="sRGB">
<feFlood flood-opacity="0" result="BackgroundImageFix"/>
<feColorMatrix in="SourceAlpha" type="matrix" values="0 0 0 0 0 0 0 0 0 0 0 0 0 0 0 0 0 0 127 0" result="hardAlpha"/>
<feOffset dy="10"/>
<feGaussianBlur stdDeviation="15"/>
<feComposite in2="hardAlpha" operator="out"/>
<feColorMatrix type="matrix" values="0 0 0 0 0.633333 0 0 0 0 0.633333 0 0 0 0 0.633333 0 0 0 0.25 0"/>
<feBlend mode="normal" in2="BackgroundImageFix" result="effect1_dropShadow_737_387"/>
<feBlend mode="normal" in="SourceGraphic" in2="effect1_dropShadow_737_387" result="shape"/>
</filter>
<filter id="filter1_d_737_387" x="7.7251" y="7.7251" width="147.55" height="147.55" filterUnits="userSpaceOnUse" color-interpolation-filters="sRGB">
<feFlood flood-opacity="0" result="BackgroundImageFix"/>
<feColorMatrix in="SourceAlpha" type="matrix" values="0 0 0 0 0 0 0 0 0 0 0 0 0 0 0 0 0 0 127 0" result="hardAlpha"/>
<feOffset dy="10"/>
<feGaussianBlur stdDeviation="15"/>
<feComposite in2="hardAlpha" operator="out"/>
<feColorMatrix type="matrix" values="0 0 0 0 0.633333 0 0 0 0 0.633333 0 0 0 0 0.633333 0 0 0 0.25 0"/>
<feBlend mode="normal" in2="BackgroundImageFix" result="effect1_dropShadow_737_387"/>
<feBlend mode="normal" in="SourceGraphic" in2="effect1_dropShadow_737_387" result="shape"/>
</filter>
<linearGradient id="paint0_linear_737_387" x1="60" y1="56.1" x2="107.889" y2="65.1594" gradientUnits="userSpaceOnUse">
<stop stop-color="#97BC5D"/>
<stop offset="1" stop-color="#C0D997"/>
</linearGradient>
</defs>
</svg>
