<svg width="163" height="163" viewBox="0 0 163 163" fill="none" xmlns="http://www.w3.org/2000/svg">
<g filter="url(#filter0_d_737_314)">
<circle cx="81.5" cy="71.5" r="51.5" fill="white"/>
</g>
<g filter="url(#filter1_d_737_314)">
<circle cx="81.5001" cy="71.5001" r="43.775" fill="white"/>
</g>
<path d="M87.9566 59.6205C88.0299 59.4287 88.0554 59.2219 88.0309 59.018C88.0064 58.8141 87.9327 58.6192 87.8162 58.4501C87.6996 58.281 87.5437 58.1427 87.3619 58.0473C87.18 57.9519 86.9777 57.9021 86.7723 57.9022H78.538C78.2476 57.9025 77.9661 58.0022 77.7405 58.1849C77.5148 58.3676 77.3586 58.6222 77.298 58.9061L73.7414 75.6509C73.7022 75.8352 73.7045 76.026 73.7483 76.2092C73.7921 76.3925 73.8762 76.5637 73.9945 76.7104C74.1129 76.857 74.2624 76.9754 74.4323 77.0569C74.6022 77.1384 74.7882 77.181 74.9766 77.1816H80.3532C80.54 77.1816 80.7245 77.2229 80.8934 77.3025C81.0624 77.3821 81.2117 77.4981 81.3307 77.6422C81.4496 77.7862 81.5353 77.9548 81.5815 78.1358C81.6277 78.3168 81.6333 78.5057 81.598 78.6892L80.266 85.5915C80.0238 86.8521 81.73 87.4854 82.3682 86.3726L90.8399 71.6112C90.9505 71.4185 91.0084 71.2 91.008 70.9778C91.0075 70.7555 90.9487 70.5373 90.8373 70.345C90.7259 70.1527 90.566 69.993 90.3734 69.882C90.1809 69.771 89.9626 69.7125 89.7403 69.7125H85.9598C85.7544 69.7126 85.5521 69.6627 85.3703 69.5673C85.1884 69.4719 85.0325 69.3337 84.9158 69.1646C84.7992 68.9956 84.7254 68.8007 84.7007 68.5969C84.6761 68.393 84.7013 68.1861 84.7743 67.9942L87.9566 59.6205Z" fill="url(#paint0_linear_737_314)"/>
<path d="M99.9401 89.9436C103.371 86.4379 105.72 82.0178 106.704 77.2122C107.689 72.4067 107.268 67.4191 105.492 62.8465C100.394 49.7441 85.5856 43.2317 72.4821 48.331L73.2728 50.3629C85.2611 45.6996 98.7982 51.6538 103.461 63.6372C105.086 67.8203 105.47 72.383 104.568 76.7788C103.666 81.1746 101.516 85.2173 98.3755 88.4227L96.8255 86.9127C96.6624 86.7535 96.4557 86.6463 96.2316 86.6047C96.0075 86.5631 95.7761 86.5889 95.5667 86.6789C95.3573 86.7689 95.1793 86.919 95.0552 87.1102C94.9312 87.3014 94.8667 87.5251 94.8699 87.753L94.928 91.8569C94.9325 92.1617 95.0576 92.4523 95.276 92.665C95.4943 92.8777 95.7881 92.9951 96.0929 92.9916L100.197 92.9431C100.425 92.9403 100.646 92.87 100.834 92.7411C101.022 92.6121 101.167 92.4304 101.252 92.2188C101.337 92.0073 101.356 91.7754 101.309 91.5526C101.262 91.3297 101.149 91.1259 100.986 90.9669L99.9401 89.9436Z" fill="url(#paint1_linear_737_314)"/>
<path d="M73.0209 93.1913C69.5666 91.675 66.5321 89.3428 64.1781 86.3949C61.824 83.4471 60.2208 79.9719 59.5062 76.2677C58.7915 72.5636 58.9869 68.7414 60.0754 65.1294C61.1639 61.5174 63.113 58.2237 65.7553 55.5312L67.1285 56.8632C67.2917 57.0224 67.4984 57.1295 67.7225 57.1711C67.9465 57.2127 68.1779 57.1869 68.3874 57.0969C68.5968 57.0069 68.7748 56.8568 68.8988 56.6656C69.0228 56.4744 69.0874 56.2507 69.0842 56.0228L69.0261 51.9189C69.0242 51.7679 68.9925 51.6188 68.9329 51.48C68.8733 51.3412 68.787 51.2155 68.6788 51.1101C68.5706 51.0048 68.4427 50.9217 68.3024 50.8658C68.1621 50.8099 68.0121 50.7822 67.8611 50.7843L63.7573 50.8327C63.5276 50.8334 63.3034 50.9026 63.1134 51.0316C62.9235 51.1606 62.7764 51.3435 62.6911 51.5567C62.6059 51.77 62.5863 52.0038 62.6349 52.2283C62.6836 52.4527 62.7982 52.6574 62.9641 52.8162L64.1908 54.0114C60.1044 58.1736 57.5689 63.6112 57.0072 69.4169C56.4455 75.2226 57.8916 81.0454 61.1043 85.9137C64.317 90.7821 69.1019 94.4015 74.6608 96.1682C80.2196 97.9349 86.2162 97.742 91.65 95.6217L90.8605 93.5909C88.0082 94.7071 84.9628 95.2464 81.9007 95.1778C78.8385 95.1093 75.8204 94.4341 73.0209 93.1913Z" fill="url(#paint2_linear_737_314)"/>
<defs>
<filter id="filter0_d_737_314" x="0" y="0" width="163" height="163" filterUnits="userSpaceOnUse" color-interpolation-filters="sRGB">
<feFlood flood-opacity="0" result="BackgroundImageFix"/>
<feColorMatrix in="SourceAlpha" type="matrix" values="0 0 0 0 0 0 0 0 0 0 0 0 0 0 0 0 0 0 127 0" result="hardAlpha"/>
<feOffset dy="10"/>
<feGaussianBlur stdDeviation="15"/>
<feComposite in2="hardAlpha" operator="out"/>
<feColorMatrix type="matrix" values="0 0 0 0 0.633333 0 0 0 0 0.633333 0 0 0 0 0.633333 0 0 0 0.25 0"/>
<feBlend mode="normal" in2="BackgroundImageFix" result="effect1_dropShadow_737_314"/>
<feBlend mode="normal" in="SourceGraphic" in2="effect1_dropShadow_737_314" result="shape"/>
</filter>
<filter id="filter1_d_737_314" x="7.7251" y="7.7251" width="147.55" height="147.55" filterUnits="userSpaceOnUse" color-interpolation-filters="sRGB">
<feFlood flood-opacity="0" result="BackgroundImageFix"/>
<feColorMatrix in="SourceAlpha" type="matrix" values="0 0 0 0 0 0 0 0 0 0 0 0 0 0 0 0 0 0 127 0" result="hardAlpha"/>
<feOffset dy="10"/>
<feGaussianBlur stdDeviation="15"/>
<feComposite in2="hardAlpha" operator="out"/>
<feColorMatrix type="matrix" values="0 0 0 0 0.633333 0 0 0 0 0.633333 0 0 0 0 0.633333 0 0 0 0.25 0"/>
<feBlend mode="normal" in2="BackgroundImageFix" result="effect1_dropShadow_737_314"/>
<feBlend mode="normal" in="SourceGraphic" in2="effect1_dropShadow_737_314" result="shape"/>
</filter>
<linearGradient id="paint0_linear_737_314" x1="73.7136" y1="59.5965" x2="93.0461" y2="61.3782" gradientUnits="userSpaceOnUse">
<stop stop-color="#97BC5D"/>
<stop offset="1" stop-color="#C0D997"/>
</linearGradient>
<linearGradient id="paint1_linear_737_314" x1="72.4821" y1="49.3006" x2="111.129" y2="53.7797" gradientUnits="userSpaceOnUse">
<stop stop-color="#97BC5D"/>
<stop offset="1" stop-color="#C0D997"/>
</linearGradient>
<linearGradient id="paint2_linear_737_314" x1="56.8887" y1="53.5014" x2="95.5606" y2="57.9682" gradientUnits="userSpaceOnUse">
<stop stop-color="#97BC5D"/>
<stop offset="1" stop-color="#C0D997"/>
</linearGradient>
</defs>
</svg>
