<svg width="163" height="163" viewBox="0 0 163 163" fill="none" xmlns="http://www.w3.org/2000/svg">
<g filter="url(#filter0_d_737_294)">
<circle cx="81.5" cy="71.5" r="51.5" fill="white"/>
</g>
<g filter="url(#filter1_d_737_294)">
<circle cx="81.5" cy="71.5001" r="43.775" fill="white"/>
</g>
<path d="M75.0868 59.8071H76.087C77.0748 59.8058 78.0218 59.4128 78.7203 58.7143C79.4188 58.0158 79.8118 57.0688 79.8131 56.081V56.0398H77.6334V56.081C77.6327 56.4909 77.4696 56.8839 77.1797 57.1738C76.8899 57.4636 76.4969 57.6267 76.087 57.6274H75.0868C74.6768 57.6267 74.2839 57.4636 73.994 57.1738C73.7042 56.8839 73.541 56.4909 73.5404 56.081V52.2327C73.5414 51.8229 73.7046 51.4303 73.9945 51.1407C74.2843 50.8511 74.6771 50.6881 75.0868 50.6875H76.087C76.4969 50.6881 76.8899 50.8513 77.1797 51.1411C77.4696 51.431 77.6327 51.8239 77.6334 52.2339H79.8131C79.8118 51.246 79.4188 50.2991 78.7203 49.6006C78.0218 48.9021 77.0748 48.5091 76.087 48.5078H75.0868C74.0989 48.5088 73.1517 48.9016 72.4531 49.6002C71.7546 50.2988 71.3617 51.246 71.3607 52.2339V56.0822C71.362 57.0699 71.755 58.0168 72.4535 58.7151C73.1521 59.4134 74.0991 59.8061 75.0868 59.8071Z" fill="url(#paint0_linear_737_294)"/>
<path d="M85.3265 59.8071C86.4469 59.8058 87.5211 59.3601 88.3134 58.5678C89.1057 57.7755 89.5513 56.7013 89.5526 55.5809V52.7328C89.5526 52.1778 89.4433 51.6282 89.2309 51.1155C89.0185 50.6027 88.7072 50.1368 88.3148 49.7444C87.9224 49.352 87.4565 49.0407 86.9437 48.8283C86.431 48.6159 85.8814 48.5066 85.3265 48.5066C84.7715 48.5066 84.2219 48.6159 83.7092 48.8283C83.1964 49.0407 82.7305 49.352 82.3381 49.7444C81.9457 50.1368 81.6344 50.6027 81.422 51.1155C81.2096 51.6282 81.1003 52.1778 81.1003 52.7328V55.5809C81.1012 56.7014 81.5468 57.7758 82.3392 58.5682C83.1315 59.3605 84.2059 59.8061 85.3265 59.8071ZM83.28 52.7328C83.28 52.19 83.4956 51.6695 83.8794 51.2857C84.2632 50.9019 84.7837 50.6863 85.3265 50.6863C85.8692 50.6863 86.3897 50.9019 86.7735 51.2857C87.1573 51.6695 87.3729 52.19 87.3729 52.7328V55.5809C87.3729 56.1237 87.1573 56.6442 86.7735 57.028C86.3897 57.4118 85.8692 57.6274 85.3265 57.6274C84.7837 57.6274 84.2632 57.4118 83.8794 57.028C83.4956 56.6442 83.28 56.1237 83.28 55.5809V52.7328Z" fill="url(#paint1_linear_737_294)"/>
<path d="M94.9329 59.7998L92.8585 60.4586C92.2957 60.6374 91.8153 61.0117 91.5042 61.5137C91.1931 62.0158 91.0718 62.6125 91.1621 63.1961C91.2525 63.7798 91.5486 64.3119 91.9969 64.6964C92.4452 65.0808 93.0163 65.2923 93.6069 65.2926H96.9248V63.1129H93.6069C93.5368 63.1122 93.4693 63.0866 93.4163 63.0407C93.3634 62.9948 93.3285 62.9315 93.3179 62.8623C93.3073 62.793 93.3216 62.7222 93.3584 62.6626C93.3951 62.6029 93.4518 62.5582 93.5185 62.5365L95.5928 61.8778C96.1255 61.71 96.5907 61.3765 96.9205 60.9258C97.2503 60.4751 97.4274 59.9308 97.4262 59.3723V59.1144C97.4252 58.4173 97.1478 57.749 96.6547 57.2561C96.1616 56.7633 95.4932 56.4861 94.796 56.4855H93.7619C93.0649 56.4864 92.3968 56.7637 91.904 57.2565C91.4112 57.7494 91.1339 58.4175 91.1329 59.1144V59.4329H93.3126V59.1144C93.3129 58.9954 93.3604 58.8813 93.4446 58.7971C93.5287 58.7129 93.6428 58.6655 93.7619 58.6652H94.796C94.9153 58.6652 95.0297 58.7125 95.1141 58.7967C95.1986 58.8809 95.2462 58.9952 95.2465 59.1144V59.3723C95.2467 59.4677 95.2164 59.5607 95.1599 59.6376C95.1035 59.7145 95.0239 59.7714 94.9329 59.7998Z" fill="url(#paint2_linear_737_294)"/>
<path d="M78.5089 64.8724C80.324 64.8785 82.0886 65.4701 83.5407 66.5591C84.9927 67.6482 86.0547 69.1766 86.5689 70.9174C86.7574 71.5724 87.1556 72.1475 87.7025 72.5544C88.2493 72.9613 88.9146 73.1775 89.5962 73.1697H89.6132C90.4666 73.1699 91.3115 73.34 92.0986 73.6701C92.8856 74.0002 93.5991 74.4836 94.1973 75.0923C94.7956 75.7009 95.2667 76.4226 95.5832 77.2152C95.8998 78.0078 96.0553 78.8554 96.0408 79.7088C96.0235 80.6042 95.8141 81.4854 95.4269 82.2929C96.1366 82.4714 96.8149 82.7573 97.4383 83.1406C97.932 82.0772 98.1977 80.9222 98.2181 79.7499C98.2374 78.6073 98.029 77.4723 97.6051 76.411C97.1813 75.3498 96.5503 74.3835 95.7492 73.5686C94.948 72.7537 93.9926 72.1064 92.9387 71.6646C91.8849 71.2227 90.7535 70.995 89.6108 70.9949H89.589C89.3798 70.9978 89.1755 70.9319 89.0076 70.8071C88.8398 70.6823 88.7176 70.5057 88.6602 70.3046C88.0201 68.1072 86.6843 66.1768 84.8536 64.8032C83.0228 63.4297 80.7958 62.6871 78.5071 62.6871C76.2183 62.6871 73.9914 63.4297 72.1606 64.8032C70.3298 66.1768 68.9941 68.1072 68.354 70.3046C68.2945 70.504 68.1714 70.6785 68.0035 70.8014C67.8356 70.9243 67.632 70.9888 67.424 70.9852H67.4046C66.2612 70.9856 65.1293 71.2138 64.0751 71.6565C63.0208 72.0991 62.0653 72.7473 61.2643 73.5632C60.4632 74.3791 59.8327 75.3464 59.4096 76.4086C58.9864 77.4709 58.7791 78.6067 58.7997 79.7499C58.8772 84.4145 62.7958 88.2108 67.5293 88.2108H70.9974C71.1183 87.4505 71.3603 86.7146 71.7143 86.0311H67.5293C63.9752 86.0311 61.0363 83.1963 60.9782 79.7136C60.9637 78.8603 61.1192 78.0126 61.4357 77.22C61.7523 76.4274 62.2234 75.7058 62.8217 75.0971C63.4199 74.4885 64.1334 74.005 64.9204 73.6749C65.7075 73.3448 66.5524 73.1747 67.4058 73.1745H67.4276C67.6415 73.1742 67.8549 73.1527 68.0646 73.1104C68.8356 73.9311 69.27 75.0117 69.2815 76.1377L71.7434 76.0675C71.7217 74.4672 71.1408 72.925 70.1014 71.7081C70.2515 71.4658 70.368 71.2043 70.4477 70.9307C70.9597 69.1874 72.0209 67.656 73.4734 66.5644C74.9258 65.4728 76.692 64.8793 78.5089 64.8724Z" fill="url(#paint3_linear_737_294)"/>
<path d="M93.8939 84.1493C93.3995 84.5149 92.9965 84.9899 92.7162 85.5371C92.436 86.0844 92.2862 86.6891 92.2785 87.3038L90.0988 87.2421C90.1103 86.393 90.2994 85.5556 90.6539 84.784C91.0085 84.0123 91.5206 83.3234 92.1574 82.7616C91.6899 81.445 90.8171 80.3106 89.6643 79.5213C88.5115 78.732 87.1381 78.3286 85.7416 78.369C84.3451 78.4093 82.9973 78.8914 81.8921 79.746C80.7868 80.6005 79.9809 81.7835 79.5903 83.1249C79.5029 83.4219 79.3211 83.6823 79.0725 83.8667C78.8238 84.0511 78.5218 84.1495 78.2122 84.1469H78.2001C77.5048 84.1468 76.8163 84.2852 76.1751 84.5541C75.5338 84.823 74.9525 85.217 74.4651 85.713C73.9778 86.209 73.5942 86.7972 73.3366 87.4431C73.0791 88.089 72.9529 88.7798 72.9652 89.4751C73.0125 92.3462 75.415 94.6215 78.2861 94.6215H93.5742C96.4453 94.6215 98.8478 92.3462 98.8963 89.4751C98.9213 88.1104 98.4123 86.79 97.4779 85.7951C96.5434 84.8003 95.2574 84.2097 93.8939 84.1493Z" fill="url(#paint4_linear_737_294)"/>
<defs>
<filter id="filter0_d_737_294" x="0" y="0" width="163" height="163" filterUnits="userSpaceOnUse" color-interpolation-filters="sRGB">
<feFlood flood-opacity="0" result="BackgroundImageFix"/>
<feColorMatrix in="SourceAlpha" type="matrix" values="0 0 0 0 0 0 0 0 0 0 0 0 0 0 0 0 0 0 127 0" result="hardAlpha"/>
<feOffset dy="10"/>
<feGaussianBlur stdDeviation="15"/>
<feComposite in2="hardAlpha" operator="out"/>
<feColorMatrix type="matrix" values="0 0 0 0 0.633333 0 0 0 0 0.633333 0 0 0 0 0.633333 0 0 0 0.25 0"/>
<feBlend mode="normal" in2="BackgroundImageFix" result="effect1_dropShadow_737_294"/>
<feBlend mode="normal" in="SourceGraphic" in2="effect1_dropShadow_737_294" result="shape"/>
</filter>
<filter id="filter1_d_737_294" x="7.72504" y="7.7251" width="147.55" height="147.55" filterUnits="userSpaceOnUse" color-interpolation-filters="sRGB">
<feFlood flood-opacity="0" result="BackgroundImageFix"/>
<feColorMatrix in="SourceAlpha" type="matrix" values="0 0 0 0 0 0 0 0 0 0 0 0 0 0 0 0 0 0 127 0" result="hardAlpha"/>
<feOffset dy="10"/>
<feGaussianBlur stdDeviation="15"/>
<feComposite in2="hardAlpha" operator="out"/>
<feColorMatrix type="matrix" values="0 0 0 0 0.633333 0 0 0 0 0.633333 0 0 0 0 0.633333 0 0 0 0.25 0"/>
<feBlend mode="normal" in2="BackgroundImageFix" result="effect1_dropShadow_737_294"/>
<feBlend mode="normal" in="SourceGraphic" in2="effect1_dropShadow_737_294" result="shape"/>
</filter>
<linearGradient id="paint0_linear_737_294" x1="71.3607" y1="49.1669" x2="80.7633" y2="50.2556" gradientUnits="userSpaceOnUse">
<stop stop-color="#97BC5D"/>
<stop offset="1" stop-color="#C0D997"/>
</linearGradient>
<linearGradient id="paint1_linear_737_294" x1="81.1003" y1="49.1658" x2="90.5029" y2="50.2543" gradientUnits="userSpaceOnUse">
<stop stop-color="#97BC5D"/>
<stop offset="1" stop-color="#C0D997"/>
</linearGradient>
<linearGradient id="paint2_linear_737_294" x1="91.1329" y1="56.9992" x2="98.1418" y2="57.7744" gradientUnits="userSpaceOnUse">
<stop stop-color="#97BC5D"/>
<stop offset="1" stop-color="#C0D997"/>
</linearGradient>
<linearGradient id="paint3_linear_737_294" x1="58.7983" y1="64.176" x2="100.837" y2="74.2256" gradientUnits="userSpaceOnUse">
<stop stop-color="#97BC5D"/>
<stop offset="1" stop-color="#C0D997"/>
</linearGradient>
<linearGradient id="paint4_linear_737_294" x1="72.9644" y1="79.3144" x2="100.519" y2="86.1185" gradientUnits="userSpaceOnUse">
<stop stop-color="#97BC5D"/>
<stop offset="1" stop-color="#C0D997"/>
</linearGradient>
</defs>
</svg>
