<svg width="97" height="63" viewBox="0 0 97 63" fill="none" xmlns="http://www.w3.org/2000/svg">
<g clip-path="url(#clip0_737_517)">
<path fill-rule="evenodd" clip-rule="evenodd" d="M28.9117 36.4682C27.7102 37.6936 27.7102 39.6833 28.9123 40.9087C30.1128 42.1346 32.0627 42.1341 33.2632 40.9082L37.0433 37.0496C40.2541 39.2738 44.1574 40.5788 48.3667 40.5788C59.3054 40.5788 68.1832 31.7423 68.1832 20.8693C68.1832 16.5025 66.7567 12.4599 64.3421 9.18364L68.0883 5.35965C69.2896 4.13425 69.2896 2.14458 68.0878 0.91918C66.8874 -0.30674 64.9371 -0.306219 63.7368 0.919697L59.919 4.81677C56.6672 2.48328 52.6782 1.1071 48.3667 1.1071C37.4048 1.1071 28.5338 9.97868 28.5338 20.8693C28.5338 25.3314 30.0289 29.45 32.5487 32.7557L28.9117 36.4682ZM41.5443 32.4551C43.5462 33.6214 45.8775 34.2907 48.3667 34.2907C55.8175 34.2907 61.8647 28.2678 61.8647 20.8693C61.8647 18.2688 61.1235 15.8388 59.8407 13.7783L41.5443 32.4551ZM55.4352 9.39382L37.0333 28.1779C35.6537 26.0732 34.8522 23.5622 34.8522 20.8693C34.8522 13.4377 40.9079 7.39522 48.3667 7.39522C50.9561 7.39522 53.378 8.12669 55.4352 9.39382Z" fill="#3C3F34"/>
<path d="M2.59357 58.0943V49.0574H5.70587V58.0943C5.70587 59 6.22458 59.9016 7.26202 59.9016C8.29945 59.9016 8.81817 59 8.81817 58.0943V49.0574H11.9305C11.9304 51.018 11.9304 53.4302 11.9304 55.5293L11.9305 58.0943C11.9305 60.8105 9.839 63 7.26202 63C4.68453 63 2.59357 60.8105 2.59357 58.0943Z" fill="#3C3F34"/>
<path d="M22.3048 62.9886V52.1557H19.7112V49.0574H28.0107V52.1557H25.4171V63L22.3048 62.9886Z" fill="#3C3F34"/>
<path fill-rule="evenodd" clip-rule="evenodd" d="M42.7933 49.0574C38.9285 49.0574 35.7914 52.1805 35.7914 56.0282C35.7914 59.8768 38.9285 63 42.7933 63C46.6597 63 49.7968 59.8768 49.7968 56.0282C49.7968 52.1805 46.6597 49.0574 42.7933 49.0574ZM42.7933 52.338C44.8404 52.338 46.5008 53.992 46.5008 56.0282C46.5008 58.0659 44.8404 59.7188 42.7933 59.7188C40.7473 59.7188 39.0869 58.0659 39.0869 56.0282C39.0869 53.992 40.7473 52.338 42.7933 52.338Z" fill="#3C3F34"/>
<path d="M73.6578 49.0574V63H76.7701V49.0574H73.6578Z" fill="#3C3F34"/>
<path fill-rule="evenodd" clip-rule="evenodd" d="M90.7769 60.418L90.7754 63H93.8877V53.9631C93.8877 51.2458 91.7957 49.0574 89.2192 49.0574C86.6428 49.0574 84.5508 51.2458 84.5508 53.9631V63H87.6631L87.6636 60.418H90.7769ZM90.7754 53.9796L90.7769 57.3197H87.6631V53.9631C87.6631 53.0568 88.3608 52.3375 89.2192 52.3375C90.0777 52.3375 90.7754 53.0734 90.7754 53.9796Z" fill="#3C3F34"/>
<path d="M20.8928 33.4335C22.0766 34.6367 22.0843 36.5995 20.9111 37.8136C19.7375 39.0276 17.8243 39.0359 16.64 37.8321L0 20.9099L16.6405 3.99546C17.8249 2.79175 19.738 2.80052 20.9116 4.01508C22.0848 5.22913 22.0766 7.19194 20.8928 8.39514L8.57942 20.9115L20.8928 33.4335Z" fill="#3C3F34"/>
<path d="M76.089 37.8136C74.9156 36.5995 74.9234 34.6367 76.1071 33.4335L88.4204 20.9115L76.1071 8.39514C74.9234 7.19194 74.9151 5.22913 76.0885 4.01508C77.2618 2.80052 79.1753 2.79175 80.3596 3.99546L97 20.9099L80.3601 37.8321C79.1759 39.0359 77.2623 39.0276 76.089 37.8136Z" fill="#3C3F34"/>
<path fill-rule="evenodd" clip-rule="evenodd" d="M57.5775 63V49.0574H62.2019V49.06C64.2399 49.1168 65.877 50.9308 65.877 53.1586C65.877 55.3135 64.2596 57.3197 62.246 57.3197H60.6898V63H57.5775ZM63.2834 53.1885C63.2834 54.0741 62.7937 54.7062 61.9866 54.7377H60.6898V51.6393H61.9866C62.8197 51.6393 63.2834 52.2833 63.2834 53.1885Z" fill="#3C3F34"/>
<path d="M94.408 0C94.8437 0 95.2686 0.111788 95.6835 0.335365C96.0985 0.556662 96.4211 0.874915 96.653 1.29013C96.8844 1.70306 97 2.13424 97 2.58368C97 3.02855 96.8854 3.45631 96.6561 3.86696C96.4294 4.27761 96.1099 4.59701 95.697 4.82515C95.2872 5.051 94.8572 5.16393 94.408 5.16393C93.9588 5.16393 93.5283 5.051 93.1159 4.82515C92.7056 4.59701 92.3855 4.27761 92.1568 3.86696C91.9275 3.45631 91.8129 3.02855 91.8129 2.58368C91.8129 2.13424 91.9285 1.70306 92.1599 1.29013C92.3938 0.874915 92.718 0.556662 93.133 0.335365C93.5475 0.111788 93.9728 0 94.408 0ZM94.408 0.427761C94.0439 0.427761 93.6885 0.5213 93.3426 0.708373C92.9987 0.893165 92.7294 1.15895 92.5349 1.50572C92.3399 1.85021 92.2424 2.20953 92.2424 2.58368C92.2424 2.95555 92.3378 3.31258 92.5277 3.65479C92.7206 3.99472 92.9883 4.2605 93.3322 4.45214C93.6761 4.64149 94.0345 4.73618 94.408 4.73618C94.7815 4.73618 95.1404 4.64149 95.4843 4.45214C95.8277 4.2605 96.0949 3.99472 96.2852 3.65479C96.4751 3.31258 96.5705 2.95555 96.5705 2.58368C96.5705 2.20953 96.473 1.85021 96.278 1.50572C96.0855 1.15895 95.8163 0.893165 95.4703 0.708373C95.1244 0.5213 94.7701 0.427761 94.408 0.427761ZM93.409 3.97226V1.19168H94.2327C94.5605 1.19168 94.7944 1.25819 94.9407 1.31066C95.0875 1.36085 95.2048 1.44983 95.2914 1.57758C95.3785 1.70534 95.4221 1.84108 95.4221 1.98481C95.4221 2.18786 95.349 2.36466 95.2022 2.51523C95.058 2.66581 94.8655 2.75022 94.6248 2.76847C94.7234 2.80954 94.8022 2.85858 94.8619 2.91562C94.9744 3.02513 95.1119 3.20878 95.2743 3.46658L95.6036 3.97226H95.0051L94.8173 3.57266C94.6222 3.22817 94.4656 3.01258 94.3463 2.92589C94.2638 2.86201 94.1658 2.78058 94.0076 2.78058L93.8078 2.76847V3.97226H93.409ZM93.8078 2.38335H94.2067C94.4682 2.38335 94.7063 2.40801 94.8002 2.33044C94.8961 2.25288 94.9407 2.11257 94.9407 1.98481C94.9407 1.83442 94.8178 1.70837 94.6829 1.65629C94.603 1.62435 94.4272 1.57758 94.2067 1.57758H93.8078V2.38335Z" fill="#3C3F34"/>
</g>
<defs>
<clipPath id="clip0_737_517">
<rect width="97" height="63" fill="white"/>
</clipPath>
</defs>
</svg>
