<svg width="163" height="163" viewBox="0 0 163 163" fill="none" xmlns="http://www.w3.org/2000/svg">
<g filter="url(#filter0_d_737_326)">
<circle cx="81.5" cy="71.5" r="51.5" fill="white"/>
</g>
<g filter="url(#filter1_d_737_326)">
<circle cx="81.5001" cy="71.5001" r="43.775" fill="white"/>
</g>
<path d="M92.0811 62.9713C92.0811 61.0074 91.4987 59.0876 90.4076 57.4547C89.3165 55.8218 87.7657 54.549 85.9513 53.7975C84.1369 53.0459 82.1404 52.8493 80.2142 53.2324C78.288 53.6156 76.5187 54.5613 75.13 55.95C73.7413 57.3387 72.7956 59.108 72.4125 61.0341C72.0293 62.9603 72.226 64.9568 72.9775 66.7712C73.7291 68.5857 75.0018 70.1365 76.6347 71.2276C78.2677 72.3186 80.1875 72.901 82.1514 72.901C84.7842 72.8988 87.3085 71.8519 89.1702 69.9902C91.0319 68.1285 92.0788 65.6041 92.0811 62.9713ZM79.1628 68.0282V65.9696H82.1901C82.4341 65.9693 82.668 65.8722 82.8405 65.6997C83.0131 65.5272 83.1101 65.2933 83.1104 65.0493V64.7756C83.1101 64.5316 83.0131 64.2977 82.8405 64.1252C82.668 63.9527 82.4341 63.8556 82.1901 63.8553H82.1598C81.4607 63.8549 80.784 63.6087 80.2482 63.1597C79.7123 62.7106 79.3515 62.0875 79.2288 61.3992C79.1061 60.711 79.2294 60.0015 79.577 59.3949C79.9247 58.7884 80.4746 58.3235 81.1306 58.0816V56.6066H83.1891V57.8987H85.2695V59.9573H82.1586C81.9205 59.9659 81.695 60.0666 81.5296 60.2382C81.3641 60.4097 81.2717 60.6387 81.2717 60.877C81.2717 61.1153 81.3641 61.3443 81.5296 61.5159C81.695 61.6874 81.9205 61.7881 82.1586 61.7967H82.1889C82.9787 61.7977 83.7358 62.1118 84.2943 62.6703C84.8527 63.2287 85.1669 63.9859 85.1678 64.7756V65.0493C85.167 65.6639 84.9763 66.2633 84.622 66.7655C84.2676 67.2677 83.7668 67.6482 83.1879 67.855V69.4426H81.1293V68.0282H79.1628Z" fill="url(#paint0_linear_737_326)"/>
<path d="M92.5206 80.2344C90.3204 80.1303 86.2371 80.3725 83.2436 83.0922V77.4965C86.9694 77.2146 90.4409 75.4999 92.9291 72.7125C95.4173 69.9251 96.7286 66.282 96.5876 62.5483C96.4465 58.8146 94.8641 55.2808 92.1726 52.6891C89.4812 50.0974 85.8902 48.6495 82.1538 48.6495C78.4174 48.6495 74.8264 50.0974 72.1349 52.6891C69.4435 55.2808 67.8611 58.8146 67.72 62.5483C67.579 66.282 68.8902 69.9251 71.3785 72.7125C73.8667 75.4999 77.3382 77.2146 81.0639 77.4965V83.0668C78.0729 80.3664 74.0042 80.1266 71.8112 80.2308C71.0892 80.2628 70.4054 80.5639 69.8944 81.0749C69.3834 81.5859 69.0822 82.2698 69.0502 82.9917C68.9437 85.2416 69.198 89.4654 72.0994 92.4746C74.1895 94.6434 77.2398 95.772 81.1717 95.8349C81.2928 95.8349 83.4132 95.8349 83.7074 95.8192C87.3766 95.6642 90.2404 94.5416 92.2336 92.4746C95.1399 89.4654 95.3881 85.2416 95.2816 82.9917C95.249 82.2703 94.9475 81.5872 94.4366 81.0769C93.9256 80.5666 93.2421 80.2661 92.5206 80.2344ZM70.289 62.9713C70.289 60.6242 70.985 58.3298 72.289 56.3782C73.593 54.4267 75.4464 52.9056 77.6148 52.0074C79.7833 51.1092 82.1694 50.8742 84.4714 51.3321C86.7734 51.79 88.8879 52.9203 90.5476 54.5799C92.2072 56.2396 93.3375 58.3541 93.7954 60.6561C94.2533 62.9581 94.0183 65.3442 93.1201 67.5127C92.2219 69.6811 90.7008 71.5345 88.7493 72.8385C86.7977 74.1425 84.5033 74.8385 82.1562 74.8385C79.0098 74.8353 75.9932 73.584 73.7684 71.3591C71.5435 69.1343 70.2922 66.1177 70.289 62.9713ZM71.2227 83.0934C71.232 82.914 71.3075 82.7445 71.4345 82.6175C71.5615 82.4904 71.7311 82.415 71.9105 82.4056C73.8092 82.316 77.3597 82.5122 79.7816 84.8469C81.3739 86.3811 82.2664 88.642 82.4456 91.5761C81.4014 90.0657 79.9198 88.9112 78.2001 88.2678L77.4638 90.4947C77.5777 90.5347 79.8046 91.3193 80.932 93.6431C77.7399 93.5463 75.2962 92.6441 73.6663 90.9573C71.3341 88.539 71.1379 84.9922 71.2227 83.0934ZM90.6594 90.9645C89.2402 92.4358 87.1973 93.3101 84.5793 93.5729C84.6242 93.3688 84.6481 93.1606 84.6507 92.9517C84.6798 90.3506 84.2608 88.1176 83.4023 86.2721C83.724 85.7535 84.1083 85.2765 84.5466 84.8517C86.6887 82.7859 89.7149 82.3935 91.6984 82.3935C91.9551 82.3935 92.1949 82.4008 92.4128 82.4105C92.592 82.4201 92.7613 82.4957 92.8881 82.6227C93.0148 82.7497 93.0901 82.9191 93.0995 83.0983C93.1951 84.9922 92.9977 88.539 90.6643 90.9597L90.6594 90.9645Z" fill="url(#paint1_linear_737_326)"/>
<defs>
<filter id="filter0_d_737_326" x="0" y="0" width="163" height="163" filterUnits="userSpaceOnUse" color-interpolation-filters="sRGB">
<feFlood flood-opacity="0" result="BackgroundImageFix"/>
<feColorMatrix in="SourceAlpha" type="matrix" values="0 0 0 0 0 0 0 0 0 0 0 0 0 0 0 0 0 0 127 0" result="hardAlpha"/>
<feOffset dy="10"/>
<feGaussianBlur stdDeviation="15"/>
<feComposite in2="hardAlpha" operator="out"/>
<feColorMatrix type="matrix" values="0 0 0 0 0.633333 0 0 0 0 0.633333 0 0 0 0 0.633333 0 0 0 0.25 0"/>
<feBlend mode="normal" in2="BackgroundImageFix" result="effect1_dropShadow_737_326"/>
<feBlend mode="normal" in="SourceGraphic" in2="effect1_dropShadow_737_326" result="shape"/>
</filter>
<filter id="filter1_d_737_326" x="7.7251" y="7.7251" width="147.55" height="147.55" filterUnits="userSpaceOnUse" color-interpolation-filters="sRGB">
<feFlood flood-opacity="0" result="BackgroundImageFix"/>
<feColorMatrix in="SourceAlpha" type="matrix" values="0 0 0 0 0 0 0 0 0 0 0 0 0 0 0 0 0 0 127 0" result="hardAlpha"/>
<feOffset dy="10"/>
<feGaussianBlur stdDeviation="15"/>
<feComposite in2="hardAlpha" operator="out"/>
<feColorMatrix type="matrix" values="0 0 0 0 0.633333 0 0 0 0 0.633333 0 0 0 0 0.633333 0 0 0 0.25 0"/>
<feBlend mode="normal" in2="BackgroundImageFix" result="effect1_dropShadow_737_326"/>
<feBlend mode="normal" in="SourceGraphic" in2="effect1_dropShadow_737_326" result="shape"/>
</filter>
<linearGradient id="paint0_linear_737_326" x1="72.2217" y1="54.2001" x2="94.0862" y2="57.5843" gradientUnits="userSpaceOnUse">
<stop stop-color="#97BC5D"/>
<stop offset="1" stop-color="#C0D997"/>
</linearGradient>
<linearGradient id="paint1_linear_737_326" x1="67.7097" y1="51.402" x2="99.9867" y2="54.4606" gradientUnits="userSpaceOnUse">
<stop stop-color="#97BC5D"/>
<stop offset="1" stop-color="#C0D997"/>
</linearGradient>
</defs>
</svg>
