<svg width="163" height="163" viewBox="0 0 163 163" fill="none" xmlns="http://www.w3.org/2000/svg">
<g filter="url(#filter0_d_737_337)">
<circle cx="81.5" cy="71.5" r="51.5" fill="white"/>
</g>
<g filter="url(#filter1_d_737_337)">
<circle cx="81.5001" cy="71.5001" r="43.775" fill="white"/>
</g>
<path d="M98.6298 58.1784C98.0606 57.487 97.5242 56.8343 97.2675 56.2155C96.9914 55.5507 96.9042 54.6764 96.8049 53.7524C96.6475 52.2218 96.467 50.4829 95.2924 49.3119C94.1178 48.1409 92.3862 47.9569 90.8519 47.7982C89.9268 47.7026 89.0537 47.6118 88.3877 47.3369C87.7701 47.0802 87.1162 46.5425 86.4247 45.9734C85.2138 44.978 83.8454 43.8506 82.1102 43.8506C80.3749 43.8506 79.0041 44.978 77.7944 45.9734C77.1029 46.5425 76.4502 47.0802 75.8314 47.3369C75.1666 47.6118 74.2923 47.7002 73.3684 47.7982C71.8378 47.9569 70.0989 48.1361 68.9279 49.3107C67.7569 50.4853 67.5729 52.217 67.4142 53.7524C67.3186 54.6764 67.2277 55.5507 66.9529 56.2155C66.6961 56.8343 66.1585 57.487 65.5893 58.1784C64.5952 59.3893 63.4678 60.7577 63.4678 62.4942C63.4678 64.2307 64.5952 65.6002 65.5893 66.8088C66.1585 67.5002 66.6961 68.1541 66.9529 68.7717C67.2277 69.4365 67.3161 70.3108 67.4142 71.2359C67.5729 72.7666 67.7521 74.5055 68.9279 75.6764C70.1037 76.8474 71.8341 77.0303 73.3684 77.1889C74.2923 77.2846 75.1666 77.3754 75.8314 77.6515C76.4502 77.907 77.1029 78.4446 77.7944 79.0138C79.0053 80.0092 80.3749 81.1366 82.1102 81.1366C83.8454 81.1366 85.2162 80.0092 86.4247 79.0138C87.1162 78.4446 87.7701 77.907 88.3877 77.6515C89.0537 77.3754 89.9268 77.2882 90.8519 77.1889C92.3825 77.0315 94.1214 76.8511 95.2924 75.6764C96.4634 74.5018 96.6475 72.7702 96.8049 71.2359C96.9005 70.3108 96.9914 69.4377 97.2675 68.7717C97.5242 68.1541 98.0606 67.5002 98.6298 66.8088C99.6252 65.5978 100.753 64.2295 100.753 62.4942C100.753 60.7589 99.6252 59.3881 98.6298 58.1784ZM96.9466 65.4234C96.3011 66.2081 95.6339 67.0195 95.2512 67.9373C94.8541 68.8964 94.7427 69.9717 94.6349 71.0107C94.5017 72.2943 94.377 73.5064 93.7485 74.1349C93.12 74.7634 91.9079 74.8881 90.6243 75.0213C89.5853 75.1291 88.51 75.2405 87.5509 75.6377C86.633 76.0179 85.8217 76.6852 85.0382 77.333C84.021 78.1698 83.062 78.9593 82.1077 78.9593C81.1535 78.9593 80.1932 78.1698 79.1773 77.333C78.3926 76.6876 77.5812 76.0204 76.6646 75.6377C75.7055 75.2405 74.6302 75.1291 73.59 75.0213C72.3064 74.8881 71.0943 74.7634 70.4658 74.1349C69.8373 73.5064 69.7126 72.2943 69.5806 71.0107C69.4728 69.9717 69.3614 68.8964 68.963 67.9373C68.5828 67.0195 67.9155 66.2081 67.2677 65.4234C66.437 64.4075 65.6523 63.4484 65.6523 62.4942C65.6523 61.54 66.4418 60.5797 67.2774 59.5637C67.9228 58.779 68.59 57.9677 68.9727 57.0498C69.3711 56.092 69.4825 55.0166 69.5903 53.9764C69.7223 52.6929 69.8482 51.4807 70.4767 50.8522C71.1052 50.2238 72.3125 50.099 73.5924 49.961C74.6326 49.8593 75.7031 49.7479 76.6718 49.3555C77.5885 48.9753 78.3998 48.308 79.1845 47.6602C80.2005 46.8246 81.1608 46.0339 82.115 46.0339C83.0692 46.0339 84.0283 46.8246 85.0455 47.6602C85.8289 48.3056 86.6403 48.9729 87.5582 49.3555C88.5172 49.7539 89.5925 49.8653 90.6315 49.9719C91.9151 50.1051 93.1273 50.231 93.7557 50.8583C94.3842 51.4855 94.5089 52.6989 94.6421 53.9825C94.7499 55.0227 94.8613 56.098 95.2585 57.0559C95.6387 57.9737 96.306 58.7851 96.9538 59.5698C97.7906 60.5857 98.5801 61.546 98.5801 62.5002C98.5801 63.4545 97.7833 64.4075 96.9466 65.4234Z" fill="url(#paint0_linear_737_337)"/>
<path d="M82.3633 52.4761C80.3301 52.4758 78.3425 53.0785 76.6519 54.2079C74.9612 55.3373 73.6435 56.9427 72.8652 58.821C72.087 60.6994 71.8833 62.7663 72.2798 64.7604C72.6763 66.7546 73.6552 68.5863 75.0928 70.0241C76.5304 71.4619 78.3621 72.441 80.3561 72.8378C82.3502 73.2345 84.4172 73.031 86.2956 72.253C88.1741 71.475 89.7796 70.1574 90.9092 68.4669C92.0388 66.7764 92.6417 64.7889 92.6417 62.7557C92.6417 60.0296 91.5588 57.4151 89.6313 55.4873C87.7037 53.5596 85.0894 52.4764 82.3633 52.4761ZM87.9081 60.6705C84.0053 62.6673 81.5011 66.8778 81.4756 66.9201C81.3762 67.0896 81.2388 67.2336 81.0743 67.341C80.9098 67.4484 80.7226 67.5161 80.5275 67.5389C80.4785 67.5447 80.4291 67.5476 80.3797 67.5474C80.2082 67.5474 80.0384 67.5126 79.8806 67.4452C79.7229 67.3777 79.5804 67.2791 79.4619 67.1551L76.6246 64.1919C76.5092 64.071 76.4187 63.9286 76.3583 63.7728C76.2978 63.6169 76.2687 63.4507 76.2725 63.2836C76.2764 63.1165 76.3131 62.9518 76.3805 62.7989C76.448 62.646 76.5449 62.5079 76.6658 62.3924C76.7867 62.277 76.9291 62.1865 77.0849 62.1261C77.2407 62.0657 77.407 62.0365 77.5741 62.0403C77.7411 62.0442 77.9059 62.0809 78.0588 62.1483C78.2117 62.2158 78.3498 62.3128 78.4653 62.4336L80.2114 64.2573C81.3981 62.6395 83.6735 59.9827 86.7505 58.406C86.8992 58.3299 87.0614 58.2839 87.2279 58.2705C87.3944 58.2571 87.5619 58.2766 87.7208 58.3279C87.8797 58.3793 88.027 58.4614 88.1542 58.5696C88.2814 58.6779 88.3861 58.8101 88.4621 58.9588C88.5382 59.1075 88.5843 59.2697 88.5977 59.4362C88.6111 59.6027 88.5916 59.7702 88.5402 59.9291C88.4889 60.0881 88.4068 60.2354 88.2985 60.3626C88.1903 60.4898 88.058 60.5944 87.9094 60.6705H87.9081Z" fill="url(#paint1_linear_737_337)"/>
<path d="M92.5024 83.4519C90.2513 83.3441 86.0287 83.5984 83.0195 86.4998C82.7075 86.8028 82.4162 87.1264 82.1477 87.4686C81.8792 87.1264 81.5879 86.8028 81.2758 86.4998C78.2666 83.5936 74.0429 83.3441 71.7929 83.4519C71.0709 83.4836 70.3869 83.7847 69.8758 84.2957C69.3648 84.8068 69.0637 85.4908 69.032 86.2128C68.9254 88.4616 69.1785 92.6853 72.0799 95.6945C74.1724 97.8645 77.224 98.9943 81.162 99.0548C81.2758 99.0548 83.43 99.0548 83.7388 99.0379C87.385 98.8744 90.2331 97.7531 92.2154 95.6945C95.1217 92.6853 95.3711 88.4616 95.2645 86.2128C95.2328 85.4906 94.9316 84.8064 94.4203 84.2953C93.909 83.7843 93.2247 83.4833 92.5024 83.4519ZM78.5439 91.9805L77.8706 94.0149C77.9748 94.0512 79.9958 94.7633 81.0263 96.8715C77.7774 96.7928 75.295 95.8895 73.6493 94.182C71.3158 91.7602 71.1184 88.2145 71.2093 86.3109C71.2173 86.1312 71.2924 85.961 71.4197 85.8339C71.547 85.7068 71.7173 85.632 71.8971 85.6243C73.7946 85.5335 77.3463 85.7309 79.7682 88.0644C81.4029 89.6386 82.299 91.9818 82.4419 95.0309C81.4876 93.6371 80.1263 92.5718 78.5439 91.9805ZM90.6448 94.1784C89.2268 95.6509 87.184 96.524 84.5647 96.7868C84.6105 96.5832 84.6349 96.3754 84.6374 96.1668C84.6652 93.5645 84.2462 91.3315 83.3877 89.4872C83.7098 88.9685 84.0941 88.4911 84.532 88.0656C86.6754 85.9997 89.7003 85.6086 91.6838 85.6086C91.9405 85.6086 92.1803 85.6086 92.3983 85.6255C92.578 85.6332 92.7483 85.708 92.8757 85.8351C93.003 85.9622 93.0781 86.1324 93.0861 86.3121C93.1757 88.2145 92.9795 91.7614 90.6448 94.182V94.1784Z" fill="url(#paint2_linear_737_337)"/>
<defs>
<filter id="filter0_d_737_337" x="0" y="0" width="163" height="163" filterUnits="userSpaceOnUse" color-interpolation-filters="sRGB">
<feFlood flood-opacity="0" result="BackgroundImageFix"/>
<feColorMatrix in="SourceAlpha" type="matrix" values="0 0 0 0 0 0 0 0 0 0 0 0 0 0 0 0 0 0 127 0" result="hardAlpha"/>
<feOffset dy="10"/>
<feGaussianBlur stdDeviation="15"/>
<feComposite in2="hardAlpha" operator="out"/>
<feColorMatrix type="matrix" values="0 0 0 0 0.633333 0 0 0 0 0.633333 0 0 0 0 0.633333 0 0 0 0.25 0"/>
<feBlend mode="normal" in2="BackgroundImageFix" result="effect1_dropShadow_737_337"/>
<feBlend mode="normal" in="SourceGraphic" in2="effect1_dropShadow_737_337" result="shape"/>
</filter>
<filter id="filter1_d_737_337" x="7.7251" y="7.7251" width="147.55" height="147.55" filterUnits="userSpaceOnUse" color-interpolation-filters="sRGB">
<feFlood flood-opacity="0" result="BackgroundImageFix"/>
<feColorMatrix in="SourceAlpha" type="matrix" values="0 0 0 0 0 0 0 0 0 0 0 0 0 0 0 0 0 0 127 0" result="hardAlpha"/>
<feOffset dy="10"/>
<feGaussianBlur stdDeviation="15"/>
<feComposite in2="hardAlpha" operator="out"/>
<feColorMatrix type="matrix" values="0 0 0 0 0.633333 0 0 0 0 0.633333 0 0 0 0 0.633333 0 0 0 0.25 0"/>
<feBlend mode="normal" in2="BackgroundImageFix" result="effect1_dropShadow_737_337"/>
<feBlend mode="normal" in="SourceGraphic" in2="effect1_dropShadow_737_337" result="shape"/>
</filter>
<linearGradient id="paint0_linear_737_337" x1="63.4678" y1="46.0256" x2="104.517" y2="52.379" gradientUnits="userSpaceOnUse">
<stop stop-color="#97BC5D"/>
<stop offset="1" stop-color="#C0D997"/>
</linearGradient>
<linearGradient id="paint1_linear_737_337" x1="72.0824" y1="53.6754" x2="94.7175" y2="57.1788" gradientUnits="userSpaceOnUse">
<stop stop-color="#97BC5D"/>
<stop offset="1" stop-color="#C0D997"/>
</linearGradient>
<linearGradient id="paint2_linear_737_337" x1="69.0129" y1="84.3437" x2="96.75" y2="91.563" gradientUnits="userSpaceOnUse">
<stop stop-color="#97BC5D"/>
<stop offset="1" stop-color="#C0D997"/>
</linearGradient>
</defs>
</svg>
