<svg width="163" height="163" viewBox="0 0 163 163" fill="none" xmlns="http://www.w3.org/2000/svg">
<g filter="url(#filter0_d_737_357)">
<circle cx="81.5" cy="71.5" r="51.5" fill="white"/>
</g>
<g filter="url(#filter1_d_737_357)">
<circle cx="81.5001" cy="71.5" r="43.775" fill="white"/>
</g>
<path d="M96.9999 46H67.0001C61.477 46 57 50.477 57 56.0001V85.9999C57 91.523 61.477 96 67.0001 96H96.9999C102.523 96 107 91.523 107 85.9999V56.0001C107 50.477 102.523 46 96.9999 46ZM102 83.5C102 87.6424 98.6424 91.0001 94.5004 91.0001H69.5C65.3576 91.0001 61.9999 87.6424 61.9999 83.5V58.5C61.9999 54.3576 65.3576 50.9999 69.5 50.9999H94.5C98.642 50.9999 102 54.3576 102 58.5L102 83.5ZM87.0002 56.0001L71.9999 73.4999H82.3573L77.0001 85.9999L92.0001 68.4997H81.6427L87.0002 56.0001Z" fill="url(#paint0_linear_737_357)"/>
<defs>
<filter id="filter0_d_737_357" x="0" y="0" width="163" height="163" filterUnits="userSpaceOnUse" color-interpolation-filters="sRGB">
<feFlood flood-opacity="0" result="BackgroundImageFix"/>
<feColorMatrix in="SourceAlpha" type="matrix" values="0 0 0 0 0 0 0 0 0 0 0 0 0 0 0 0 0 0 127 0" result="hardAlpha"/>
<feOffset dy="10"/>
<feGaussianBlur stdDeviation="15"/>
<feComposite in2="hardAlpha" operator="out"/>
<feColorMatrix type="matrix" values="0 0 0 0 0.633333 0 0 0 0 0.633333 0 0 0 0 0.633333 0 0 0 0.25 0"/>
<feBlend mode="normal" in2="BackgroundImageFix" result="effect1_dropShadow_737_357"/>
<feBlend mode="normal" in="SourceGraphic" in2="effect1_dropShadow_737_357" result="shape"/>
</filter>
<filter id="filter1_d_737_357" x="7.7251" y="7.72504" width="147.55" height="147.55" filterUnits="userSpaceOnUse" color-interpolation-filters="sRGB">
<feFlood flood-opacity="0" result="BackgroundImageFix"/>
<feColorMatrix in="SourceAlpha" type="matrix" values="0 0 0 0 0 0 0 0 0 0 0 0 0 0 0 0 0 0 127 0" result="hardAlpha"/>
<feOffset dy="10"/>
<feGaussianBlur stdDeviation="15"/>
<feComposite in2="hardAlpha" operator="out"/>
<feColorMatrix type="matrix" values="0 0 0 0 0.633333 0 0 0 0 0.633333 0 0 0 0 0.633333 0 0 0 0.25 0"/>
<feBlend mode="normal" in2="BackgroundImageFix" result="effect1_dropShadow_737_357"/>
<feBlend mode="normal" in="SourceGraphic" in2="effect1_dropShadow_737_357" result="shape"/>
</filter>
<linearGradient id="paint0_linear_737_357" x1="57" y1="48.9167" x2="112.048" y2="57.437" gradientUnits="userSpaceOnUse">
<stop stop-color="#97BC5D"/>
<stop offset="1" stop-color="#C0D997"/>
</linearGradient>
</defs>
</svg>
